<svg width="115" height="29" viewBox="0 0 115 29" fill="none" xmlns="http://www.w3.org/2000/svg">
<path d="M61.4017 26.3362L61.2287 27.8262L61.4017 26.3362ZM114.749 14.4214C114.998 13.6312 114.559 12.7889 113.769 12.54L100.893 8.48403C100.103 8.23514 99.2605 8.67391 99.0116 9.46407C98.7627 10.2542 99.2015 11.0965 99.9917 11.3454L111.437 14.9507L107.832 26.3963C107.583 27.1865 108.022 28.0288 108.812 28.2777C109.602 28.5266 110.444 28.0878 110.693 27.2977L114.749 14.4214ZM0.883789 2C0.156035 3.31163 0.156301 3.31178 0.156716 3.31201C0.157055 3.3122 0.157621 3.31251 0.158298 3.31289C0.159653 3.31364 0.161606 3.31472 0.164155 3.31613C0.169254 3.31896 0.176734 3.3231 0.18657 3.32854C0.206241 3.33941 0.235332 3.35548 0.273621 3.37658C0.3502 3.41879 0.463577 3.48112 0.611987 3.56233C0.908801 3.72474 1.34577 3.96264 1.90876 4.26594C3.03469 4.87251 4.66496 5.7408 6.6865 6.78997C10.7287 8.88783 16.3397 11.7112 22.6139 14.6124C35.0954 20.3839 50.4272 26.572 61.2287 27.8262L61.5747 24.8462C51.3114 23.6545 36.3842 17.6746 23.873 11.8894C17.6508 9.0123 12.082 6.21024 8.06845 4.12722C6.06212 3.08595 4.44555 2.22494 3.33161 1.62482C2.77466 1.32478 2.34343 1.08999 2.05203 0.930546C1.90633 0.850825 1.7956 0.789942 1.7216 0.749158C1.6846 0.728766 1.65678 0.713399 1.63836 0.703215C1.62915 0.698123 1.62229 0.694327 1.61782 0.691846C1.61558 0.690606 1.61393 0.689694 1.61289 0.689114C1.61236 0.688824 1.61203 0.688638 1.61176 0.688492C1.61158 0.688389 1.61154 0.688369 0.883789 2ZM61.2287 27.8262C73.0861 29.2029 86.3217 26.0243 96.4832 22.5772C101.586 20.8462 105.959 19.0315 109.058 17.6489C110.608 16.9573 111.841 16.3731 112.689 15.9606C113.113 15.7543 113.441 15.5908 113.664 15.4782C113.776 15.4219 113.861 15.3784 113.92 15.3485C113.949 15.3336 113.971 15.3221 113.986 15.3141C113.994 15.3101 114 15.307 114.004 15.3049C114.006 15.3038 114.008 15.3029 114.009 15.3023C114.01 15.3019 114.01 15.3016 114.011 15.3015C114.011 15.3012 114.012 15.301 113.319 13.9707C112.626 12.6404 112.626 12.6403 112.626 12.6403C112.626 12.6403 112.626 12.6404 112.625 12.6405C112.625 12.6408 112.624 12.6413 112.622 12.642C112.62 12.6435 112.615 12.6458 112.609 12.6491C112.596 12.6556 112.577 12.6656 112.551 12.679C112.498 12.7059 112.419 12.7465 112.313 12.7997C112.102 12.9061 111.787 13.0632 111.377 13.263C110.556 13.6625 109.353 14.2325 107.836 14.9092C104.801 16.2632 100.516 18.0414 95.5194 19.7362C85.4833 23.1408 72.7603 26.1449 61.5747 24.8462L61.2287 27.8262Z" fill="black"/>
</svg>
