<?xml version="1.0" standalone="no"?>
<!DOCTYPE svg PUBLIC "-//W3C//DTD SVG 1.1//EN" "http://www.w3.org/Graphics/SVG/1.1/DTD/svg11.dtd" >
<svg xmlns="http://www.w3.org/2000/svg" xmlns:xlink="http://www.w3.org/1999/xlink" version="1.1">
<metadata>
Created by FontForge 20170731 at Mon Apr  5 21:13:24 2010
 By Aleksey,,,
(c) 2002 utopiafonts. designed by dale harris. Russian version by Amazinmgax.
</metadata>
<defs>
<font id="RUSMadeinChina" horiz-adv-x="975" >
  <font-face 
    font-family="RUSMade in China"
    font-weight="400"
    font-stretch="normal"
    units-per-em="1000"
    panose-1="0 0 4 0 0 0 0 0 0 0"
    ascent="800"
    descent="-200"
    x-height="397"
    cap-height="403"
    bbox="-70 -316 2220 659.019"
    underline-thickness="20"
    underline-position="-163"
    unicode-range="U+0020-2122"
  />
<missing-glyph horiz-adv-x="500" 
d="M63 0v500h375v-500h-375zM125 63h250v375h-250v-375z" />
    <glyph glyph-name=".notdef" horiz-adv-x="500" 
d="M63 0v500h375v-500h-375zM125 63h250v375h-250v-375z" />
    <glyph glyph-name=".null" horiz-adv-x="0" 
 />
    <glyph glyph-name="nonmarkingreturn" horiz-adv-x="284" 
 />
    <glyph glyph-name="space" unicode=" " horiz-adv-x="284" 
 />
    <glyph glyph-name="exclam" unicode="!" 
d="M933 261q-33 -14 -60 -54q-37 -56 -45 -64q-32 -31 -87 -31h-49l-48 1q-61 1 -90 -9q-40 -14 -61 -62q-22 49 -64 63q-27 9 -92 9q-13 0 -38 -1t-38 -1q-99 0 -140 75q-12 22 -25 45q-13 15 -43 29q45 22 58 49q48 99 140 99v1q16 0 48 -1t48 -1q61 0 86 10q37 15 60 61
q21 -41 52 -57q27 -14 76 -14q19 0 57.5 1t57.5 1v-1q56 0 90 -30q26 -22 50 -69q15 -30 57 -49zM785 164v171q-15 14 -40 14q-28 0 -42 -14v-171h28v49h27v-49h27zM672 165v182h-27v-182h27zM614 237v98q-19 12 -39 12h-42v-182h27v48h31zM508 177v158q-16 15 -41 15
t-40 -15v-158q17 -15 43 -15q18 0 38 15zM402 323v24h-81v-24h27v-158h27v158h27zM296 177v170h-27v-158h-27v158h-27v-170q17 -15 43 -15q18 0 38 15zM758 238h-27v85q3 3 11 3h4q7 0 12 -3v-85zM587 238h-27v85h27v-85zM481 189h-27v134h27v-134z" />
    <glyph glyph-name="quotedbl" unicode="&#x22;" 
d="M933 261q-33 -14 -60 -54q-37 -56 -45 -64q-32 -31 -87 -31h-49l-48 1q-61 1 -90 -9q-40 -14 -61 -62q-22 49 -64 63q-27 9 -92 9q-13 0 -38 -1t-38 -1q-99 0 -140 75q-12 22 -25 45q-13 15 -43 29q45 22 58 49q48 99 140 99v1q16 0 48 -1t48 -1q61 0 86 10q37 15 60 61
q21 -41 52 -57q27 -14 76 -14q19 0 57.5 1t57.5 1v-1q56 0 90 -30q26 -22 50 -69q15 -30 57 -49zM785 164v171q-15 14 -40 14q-28 0 -42 -14v-171h28v49h27v-49h27zM672 165v182h-27v-182h27zM614 237v98q-19 12 -39 12h-42v-182h27v48h31zM508 177v158q-16 15 -41 15
t-40 -15v-158q17 -15 43 -15q18 0 38 15zM402 323v24h-81v-24h27v-158h27v158h27zM296 177v170h-27v-158h-27v158h-27v-170q17 -15 43 -15q18 0 38 15zM758 238h-27v85q3 3 11 3h4q7 0 12 -3v-85zM587 238h-27v85h27v-85zM481 189h-27v134h27v-134z" />
    <glyph glyph-name="numbersign" unicode="#" horiz-adv-x="2144" 
d="M2004 0h-299q-31 0 -55 22t-24 53l1 324h178v70l99 10l-1 -80h179l1 -324q0 -31 -24 -53t-55 -22zM1735 73h238v253h-238v-253zM1211 326v-83h257v83h-257zM1577 399l1 -164q0 -32 -23.5 -53.5t-55.5 -21.5h-131q22 -109 136 -180q75 -47 157 -47q18 0 33 3l5 -60
q-44 -11 -92 -11q-112 0 -199 58.5t-128 162.5l-16 38q-6 15 -7 36h-46v-399l-109 -12v412h-249q-32 0 -55.5 21.5t-23.5 53.5v8h328v415q34 1 79 -60q30 -42 30 -110v-90h366zM636 399h307v70l99 10l-1 -153h-296v-258h297v-207q-45 0 -74 44q-25 39 -25 86v4h-228
q-11 0 -25 11.5t-26 22.5q-28 22 -28 46v324zM222 399q68 -123 143 -219q3 -4 113 -133v352l108 -5v-457q10 -5 22 -6q9 -1 23.5 1t20.5 2q11 0 22 2l5 -60q-41 -10 -76 -10q-97 0 -186 87q-111 109 -207 263v-226l-109 -10v347q-35 5 -46 11q-23 12 -23 43v18h190z" />
    <glyph glyph-name="dollar" unicode="$" horiz-adv-x="504" 
d="M448 254q1 -23 1 -45q0 -254 -235 -254q-86 0 -208 33l31 74q112 -18 164 -18q70 0 103 27q37 30 37 100l-255 1q-28 0 -54 17q-31 21 -31 55v155h337v40l99 10v-122l-327 -1v-72h338zM175 490h86v-588h-86v588z" />
    <glyph glyph-name="percent" unicode="%" 
d="M933 261q-33 -14 -60 -54q-37 -56 -45 -64q-32 -31 -87 -31h-49l-48 1q-61 1 -90 -9q-40 -14 -61 -62q-22 49 -64 63q-27 9 -92 9q-13 0 -38 -1t-38 -1q-99 0 -140 75q-12 22 -25 45q-13 15 -43 29q45 22 58 49q48 99 140 99v1q16 0 48 -1t48 -1q61 0 86 10q37 15 60 61
q21 -41 52 -57q27 -14 76 -14q19 0 57.5 1t57.5 1v-1q56 0 90 -30q26 -22 50 -69q15 -30 57 -49zM785 164v171q-15 14 -40 14q-28 0 -42 -14v-171h28v49h27v-49h27zM672 165v182h-27v-182h27zM614 237v98q-19 12 -39 12h-42v-182h27v48h31zM508 177v158q-16 15 -41 15
t-40 -15v-158q17 -15 43 -15q18 0 38 15zM402 323v24h-81v-24h27v-158h27v158h27zM296 177v170h-27v-158h-27v158h-27v-170q17 -15 43 -15q18 0 38 15zM758 238h-27v85q3 3 11 3h4q7 0 12 -3v-85zM587 238h-27v85h27v-85zM481 189h-27v134h27v-134z" />
    <glyph glyph-name="ampersand" unicode="&#x26;" 
d="M933 261q-33 -14 -60 -54q-37 -56 -45 -64q-32 -31 -87 -31h-49l-48 1q-61 1 -90 -9q-40 -14 -61 -62q-22 49 -64 63q-27 9 -92 9q-13 0 -38 -1t-38 -1q-99 0 -140 75q-12 22 -25 45q-13 15 -43 29q45 22 58 49q48 99 140 99v1q16 0 48 -1t48 -1q61 0 86 10q37 15 60 61
q21 -41 52 -57q27 -14 76 -14q19 0 57.5 1t57.5 1v-1q52 0 86 -26q28 -22 54 -73q15 -30 57 -49zM785 164v171q-15 14 -40 14q-28 0 -42 -14v-171h28v49h27v-49h27zM672 165v182h-27v-182h27zM614 237v98q-19 12 -39 12h-42v-182h27v48h31zM508 177v158q-16 15 -41 15
t-40 -15v-158q17 -15 43 -15q18 0 38 15zM402 323v24h-81v-24h27v-158h27v158h27zM296 177v170h-27v-158h-27v158h-27v-170q17 -15 43 -15q18 0 38 15zM758 238h-27v85q3 3 11 3h4q7 0 12 -3v-85zM587 238h-27v85h27v-85zM481 189h-27v134h27v-134z" />
    <glyph glyph-name="quotesingle" unicode="'" horiz-adv-x="160" 
d="M-3 494v-63q52 -15 70 -93h19q17 78 17 97q0 31 -17 59h-89z" />
    <glyph glyph-name="parenleft" unicode="(" horiz-adv-x="203" 
d="M180 494q-84 0 -133 -53.5t-49 -140.5v-190q0 -85 50 -142.5t132 -57.5h19v80h-19q-46 0 -61 39q-10 25 -10 87v172q0 62 10 87q15 39 61 39h19v80h-19z" />
    <glyph glyph-name="parenright" unicode=")" horiz-adv-x="260" 
d="M17 494q84 0 133 -53.5t49 -140.5v-190q0 -85 -48 -142q-51 -58 -134 -58h-19v80h19q46 0 62 39q9 25 9 87v172q0 62 -9 87q-16 39 -62 39h-19v80h19z" />
    <glyph glyph-name="asterisk" unicode="*" 
d="M933 261q-33 -14 -60 -54q-37 -56 -45 -64q-32 -31 -87 -31h-49l-48 1q-61 1 -90 -9q-40 -14 -61 -62q-22 49 -64 63q-27 9 -92 9q-13 0 -38 -1t-38 -1q-99 0 -140 75q-12 22 -25 45q-13 15 -43 29q45 22 58 49q48 99 140 99v1q16 0 48 -1t48 -1q61 0 86 10q37 15 60 61
q21 -41 52 -57q27 -14 76 -14q19 0 57.5 1t57.5 1v-1q52 0 86 -26q28 -22 54 -73q15 -30 57 -49zM785 164v171q-15 14 -40 14q-28 0 -42 -14v-171h28v49h27v-49h27zM672 165v182h-27v-182h27zM614 237v98q-19 12 -39 12h-42v-182h27v48h31zM508 177v158q-16 15 -41 15
t-40 -15v-158q17 -15 43 -15q18 0 38 15zM402 323v24h-81v-24h27v-158h27v158h27zM296 177v170h-27v-158h-27v158h-27v-170q17 -15 43 -15q18 0 38 15zM758 238h-27v85q3 3 11 3h4q7 0 12 -3v-85zM587 238h-27v85h27v-85zM481 189h-27v134h27v-134z" />
    <glyph glyph-name="plus" unicode="+" 
d="M933 261q-33 -14 -60 -54q-37 -56 -45 -64q-32 -31 -87 -31h-49l-48 1q-61 1 -90 -9q-40 -14 -61 -62q-22 49 -64 63q-27 9 -92 9q-13 0 -38 -1t-38 -1q-99 0 -140 75q-12 22 -25 45q-13 15 -43 29q45 22 58 49q48 99 140 99v1q16 0 48 -1t48 -1q61 0 86 10q37 15 60 61
q21 -41 52 -57q27 -14 76 -14q19 0 57.5 1t57.5 1v-1q56 0 90 -30q26 -22 50 -69q15 -30 57 -49zM785 164v171q-15 14 -40 14q-28 0 -42 -14v-171h28v49h27v-49h27zM672 165v182h-27v-182h27zM614 237v98q-19 12 -39 12h-42v-182h27v48h31zM508 177v158q-16 15 -41 15
t-40 -15v-158q17 -15 43 -15q18 0 38 15zM402 323v24h-81v-24h27v-158h27v158h27zM296 177v170h-27v-158h-27v158h-27v-170q17 -15 43 -15q18 0 38 15zM758 238h-27v85q3 3 11 3h4q7 0 12 -3v-85zM587 238h-27v85h27v-85zM481 189h-27v134h27v-134z" />
    <glyph glyph-name="comma" unicode="," horiz-adv-x="168" 
d="M-3 64v-63q52 -15 70 -93h19q17 78 17 97q0 31 -17 59h-89z" />
    <glyph glyph-name="hyphen" unicode="-" horiz-adv-x="410" 
d="M345 254v-8q0 -35 -28 -57q-24 -18 -51 -18h-256v83h335z" />
    <glyph glyph-name="hyphen" unicode="&#x2010;" horiz-adv-x="410" 
d="M345 254v-8q0 -35 -28 -57q-24 -18 -51 -18h-256v83h335z" />
    <glyph glyph-name="period" unicode="." horiz-adv-x="165" 
d="M-3 64h99v-63h-99v63z" />
    <glyph glyph-name="slash" unicode="/" horiz-adv-x="282" 
d="M256 494h-99l-160 -573h99z" />
    <glyph glyph-name="zero" unicode="0" horiz-adv-x="520" 
d="M459 74q0 -35 -28 -56q-24 -19 -52 -19h-298q-27 0 -51 19q-28 21 -28 56v329h179v36l99 10l-1 -46h179zM349 72v258h-238v-258h238zM181 243h98v-73h-98v73z" />
    <glyph glyph-name="one" unicode="1" horiz-adv-x="173" 
d="M109 402l-1 -402h-108v402h109z" />
    <glyph glyph-name="two" unicode="2" horiz-adv-x="495" 
d="M170 439l99 10v-46l178 -4v-155q0 -34 -31 -55q-25 -17 -54 -17l-254 -1q-1 -70 36 -100q33 -27 103 -27q52 0 164 18l32 -74q-123 -33 -209 -33q-235 0 -235 254q0 22 2 45h337v72l-327 1l1 72l158 4v36z" />
    <glyph glyph-name="three" unicode="3" horiz-adv-x="534" 
d="M0 399v-73h367v-73h-267v-83h241q2 -14 2 -26q0 -56 -52.5 -80.5t-167.5 -24.5q-52 0 -123 5v-44q141 -39 238 -39q220 0 220 198q0 17 -2 36q21 21 20 50l-1 154l-196 4l1 46l-99 -10v-36z" />
    <glyph glyph-name="four" unicode="4" horiz-adv-x="604" 
d="M438 246h122v-87h-122v-159h-111l-1 159l-249 3q-27 0 -51 19q-28 21 -28 56l1 167l108 1l1 -160l220 1l1 156l109 -1v-155z" />
    <glyph glyph-name="five" unicode="5" horiz-adv-x="525" 
d="M0 387v0v12l181 4v36l99 10l-1 -46l196 -4l1 -73h-375v-73h365q4 -31 4 -59q0 -228 -250 -228q-96 0 -220 34v44q71 -5 123 -5q115 0 167.5 24.5t52.5 80.5q0 12 -2 26h-341v30v187z" />
    <glyph glyph-name="six" unicode="6" horiz-adv-x="522" 
d="M475 77q0 -34 -28 -56q-23 -19 -51 -19l-315 -2q-27 0 -51 18q-28 22 -28 57l-3 173q-1 89 63.5 137.5t179.5 48.5q92 0 204 -31l-31 -74q-116 18 -173 18q-133 0 -133 -99h365zM365 85v90h-257v-90h257z" />
    <glyph glyph-name="seven" unicode="7" horiz-adv-x="484" 
d="M201 -28h-107q0 93 49.5 193.5t128.5 159.5h-258v77l435 -1l1 -76q-107 -25 -184 -155q-65 -110 -65 -198z" />
    <glyph glyph-name="eight" unicode="8" horiz-adv-x="574" 
d="M517 245q0 -29 -21 -50q2 -19 2 -36q0 -204 -234 -198q-241 -6 -241 200q0 16 1 34q-20 21 -20 50l1 154l206 4v36l99 10l-1 -46l206 -4zM407 253v73h-293v-73h293zM381 170h-241q-3 -17 -3 -31q0 -90 119 -95q127 5 127 97q0 14 -2 29z" />
    <glyph glyph-name="nine" unicode="9" horiz-adv-x="567" 
d="M508 401l-1 -242q0 -100 -90 -147q-73 -39 -196 -39q-67 0 -136 12l5 70q47 -4 88 -4q218 0 218 108l-319 3q-27 0 -51 19q-28 21 -28 56l1 167l202 -1v36l99 10l-1 -46zM399 334h-291v-89l290 1z" />
    <glyph glyph-name="colon" unicode=":" horiz-adv-x="159" 
d="M-3 64h99v-63h-99v63zM-3 294h99v-63h-99v63z" />
    <glyph glyph-name="semicolon" unicode=";" horiz-adv-x="157" 
d="M-3 294h99v-63h-99v63zM-3 64v-63q31 -9 45 -39q5 -11 15 -54h19q17 78 17 97q0 31 -17 59h-79z" />
    <glyph glyph-name="less" unicode="&#x3c;" horiz-adv-x="203" 
d="M180 494q-84 0 -133 -53.5t-49 -140.5v-190q0 -85 50 -142.5t132 -57.5h19v80h-19q-46 0 -61 39q-10 25 -10 87v172q0 62 10 87q15 39 61 39h19v80h-19z" />
    <glyph glyph-name="equal" unicode="=" 
d="M933 261q-33 -14 -60 -54q-37 -56 -45 -64q-32 -31 -87 -31h-49l-48 1q-61 1 -90 -9q-40 -14 -61 -62q-22 49 -64 63q-27 9 -92 9q-13 0 -38 -1t-38 -1q-99 0 -140 75q-12 22 -25 45q-13 15 -43 29q45 22 58 49q48 99 140 99v1q16 0 48 -1t48 -1q61 0 86 10q37 15 60 61
q21 -41 52 -57q27 -14 76 -14q19 0 57.5 1t57.5 1v-1q56 0 90 -30q26 -22 50 -69q15 -30 57 -49zM785 164v171q-15 14 -40 14q-28 0 -42 -14v-171h28v49h27v-49h27zM672 165v182h-27v-182h27zM614 237v98q-19 12 -39 12h-42v-182h27v48h31zM508 177v158q-16 15 -41 15
t-40 -15v-158q17 -15 43 -15q18 0 38 15zM402 323v24h-81v-24h27v-158h27v158h27zM296 177v170h-27v-158h-27v158h-27v-170q17 -15 43 -15q18 0 38 15zM758 238h-27v85q3 3 11 3h4q7 0 12 -3v-85zM587 238h-27v85h27v-85zM481 189h-27v134h27v-134z" />
    <glyph glyph-name="greater" unicode="&#x3e;" horiz-adv-x="260" 
d="M17 494q84 0 133 -53.5t49 -140.5v-190q0 -85 -48 -142q-51 -58 -134 -58h-19v80h19q46 0 62 39q9 25 9 87v172q0 62 -9 87q-16 39 -62 39h-19v80h19z" />
    <glyph glyph-name="question" unicode="?" 
d="M933 261q-33 -14 -60 -54q-37 -56 -45 -64q-32 -31 -87 -31h-49l-48 1q-61 1 -90 -9q-40 -14 -61 -62q-22 49 -64 63q-27 9 -92 9q-13 0 -38 -1t-38 -1q-99 0 -140 75q-12 22 -25 45q-13 15 -43 29q45 22 58 49q48 99 140 99v1q16 0 48 -1t48 -1q61 0 86 10q37 15 60 61
q21 -41 52 -57q27 -14 76 -14q19 0 57.5 1t57.5 1v-1q56 0 90 -30q26 -22 50 -69q15 -30 57 -49zM785 164v171q-15 14 -40 14q-28 0 -42 -14v-171h28v49h27v-49h27zM672 165v182h-27v-182h27zM614 237v98q-19 12 -39 12h-42v-182h27v48h31zM508 177v158q-16 15 -41 15
t-40 -15v-158q17 -15 43 -15q18 0 38 15zM402 323v24h-81v-24h27v-158h27v158h27zM296 177v170h-27v-158h-27v158h-27v-170q17 -15 43 -15q18 0 38 15zM758 238h-27v85q3 3 11 3h4q7 0 12 -3v-85zM587 238h-27v85h27v-85zM481 189h-27v134h27v-134z" />
    <glyph glyph-name="at" unicode="@" horiz-adv-x="2234" 
d="M2220 244l-22 -83h-355q-32 0 -55.5 21.5t-23.5 53.5v8h456zM1695 0q-31 0 -55 22t-24 53v324h307v40l99 10l-1 -123h-296v-253h297l-22 -73h-305zM1699 -164q-78 -19 -144 -19q-204 0 -275 179q-21 52 -23 114h-46v-389l-109 -12v950q55 1 85 -50q24 -41 24 -100v-110
h366l1 -214q0 -32 -23.5 -53.5t-55.5 -21.5h-131q4 -22 14 -53q26 -83 96 -127q65 -40 156 -40q32 0 60 6zM1468 193v133h-257v-133h257zM570 236q0 -32 -23.5 -53.5t-55.5 -21.5h-216v-168l-109 12v156h-200l-22 83h222v165h797v100l99 10l-1 -183h-786v-92h295v-8zM949 14
v73l-239 3q-31 0 -55 22t-24 53l1 144l108 1l1 -137l210 1v133l109 -1l-1 -378h-111v1l-64 1q-188 0 -276 -27q-125 -38 -125 -137q0 -12 2 -26l-83 -56q-14 41 -14 79q0 142 178 208q124 46 295 46q43 0 88 -3z" />
    <glyph glyph-name="A" unicode="A" horiz-adv-x="555" 
d="M477 -17l-397 2q-27 0 -51 19q-28 22 -28 56l1 171h365q0 99 -133 99q-57 0 -172 -18l-32 74q112 31 203 31q115 0 179.5 -48.5t64.5 -137.5v-248zM368 68v90h-257v-90h257z" />
    <glyph glyph-name="B" unicode="B" horiz-adv-x="535" 
d="M476 245q1 -29 -20 -50q2 -19 2 -36q0 -198 -220 -198q-97 0 -238 39v399h475zM367 253v73h-258v-73h258zM341 170h-232v-119q59 -7 99 -7q136 0 136 95q0 14 -3 31z" />
    <glyph glyph-name="C" unicode="C" horiz-adv-x="464" 
d="M437 449v-122l-327 -1v-253h327l-22 -73h-335q-27 0 -51 19q-28 21 -28 56v324h337v40z" />
    <glyph glyph-name="D" unicode="D" horiz-adv-x="539" 
d="M476 74q0 -35 -28 -56q-23 -19 -51 -19l-397 -1v402q72 -31 266 -31q63 0 110 6v84l99 10zM374 293q-14 1 -73 -2q-67 -4 -102 -4q-62 0 -90 9v-214h265v211z" />
    <glyph glyph-name="E" unicode="E" horiz-adv-x="495" 
d="M445 246q0 -35 -28 -57q-24 -18 -51 -18h-256v-98h327l-22 -73h-335q-27 0 -51 19q-28 21 -28 56v324h337v40l99 10v-122l-327 -1v-72h335v-8z" />
    <glyph glyph-name="F" unicode="F" horiz-adv-x="468" 
d="M444 249q0 -35 -28 -57q-24 -18 -51 -18h-256v-182l-109 6v404h337v40l99 10v-122l-327 -1v-72h335v-8z" />
    <glyph glyph-name="G" unicode="G" horiz-adv-x="518" 
d="M458 449l-1 -123h-346v-253l243 1v97h-55q-27 0 -51 18q-28 22 -28 57v8h236l1 -178q0 -35 -28 -56q-24 -19 -51 -19l-297 -1q-27 0 -51 18q-28 22 -28 57v324h357v40z" />
    <glyph glyph-name="H" unicode="H" horiz-adv-x="544" 
d="M491 0h-103v166q-46 -12 -110 -12q-66 0 -159 12v-162l-109 -10v347l-46 6q-23 9 -23 38v18h179l-1 -147q118 -14 269 -18v165h98z" />
    <glyph glyph-name="I" unicode="I" horiz-adv-x="187" 
d="M109 399v-399h-109v399h109z" />
    <glyph glyph-name="J" unicode="J" horiz-adv-x="486" 
d="M427 404l-1 -245q0 -100 -90 -147q-73 -39 -195 -39q-68 0 -137 12l6 70q30 -3 62 -3q99 0 162 23q82 30 84 96l3 173l-123 -1l-46 6q-24 9 -24 38v18z" />
    <glyph glyph-name="K" unicode="K" horiz-adv-x="529" 
d="M478 7q-24 -4 -52 -4q-106 0 -180 45q-92 58 -90 170h-47v-218h-109v400h109v-99h258v99h108l1 -107q1 -34 -27 -56q-24 -19 -52 -19h-131q0 -72 66 -111q52 -32 119 -32q12 0 21 1z" />
    <glyph glyph-name="L" unicode="L" horiz-adv-x="446" 
d="M437 73l-22 -73h-334q-28 0 -51 19q-28 21 -29 56l-2 261l-46 6q-23 9 -23 38v18l179 1l1 -326h327z" />
    <glyph glyph-name="M" unicode="M" horiz-adv-x="699" 
d="M639 399l-1 -399h-108v312q-74 -44 -161 -50l-1 -273l-108 -33v306q-81 6 -150 44l-1 -302l-109 -10v347l-46 6q-23 9 -23 38v18l179 1q42 -19 84 -37q59 -22 120 -22q97 0 216 54h109z" />
    <glyph glyph-name="N" unicode="N" horiz-adv-x="568" 
d="M518 -60q-36 -7 -64 -7q-78 0 -150 63q-81 71 -195 254v-246l-109 -10v347l-46 6q-23 9 -23 38v18h190q111 -202 256 -372v372h98v-407q14 -3 17 -2q16 5 21 6z" />
    <glyph glyph-name="O" unicode="O" horiz-adv-x="520" 
d="M459 74q0 -35 -28 -56q-24 -19 -51 -19h-299q-27 0 -51 19q-28 21 -28 56l1 329h178v36l99 10l-1 -46h179zM349 72v258h-238v-258h238z" />
    <glyph glyph-name="P" unicode="P" horiz-adv-x="511" 
d="M476 245q1 -34 -27 -56q-24 -19 -52 -19h-288v-170h-109v399h475zM367 253v73h-258v-73h258z" />
    <glyph glyph-name="Q" unicode="Q" horiz-adv-x="571" 
d="M509 74q0 -35 -28 -56q-24 -19 -51 -19h-124q2 -59 29 -83q23 -22 74 -22q15 0 33 2l14 -50q-36 -6 -68 -6q-81 0 -128 39.5t-47 116.5v3h-132q-27 0 -51 19q-28 21 -28 56l1 329h505zM399 72v258h-288v-258h102l-1 132l94 1v-133h93z" />
    <glyph glyph-name="R" unicode="R" horiz-adv-x="532" 
d="M478 7q-57 -9 -105 -9q-220 0 -217 172h-47v-170h-109v399h475l1 -154q1 -34 -27 -56q-24 -19 -52 -19h-131q0 -99 132 -99q27 0 74 5zM367 253v73h-258v-73h258z" />
    <glyph glyph-name="S" unicode="S" horiz-adv-x="505" 
d="M448 254q1 -23 1 -45q0 -254 -235 -254q-86 0 -208 33l31 74q112 -18 164 -18q70 0 103 27q37 30 37 100l-255 1q-28 0 -54 17q-31 21 -31 55v155h337v40l99 10v-122l-327 -1v-72h338z" />
    <glyph glyph-name="T" unicode="T" horiz-adv-x="509" 
d="M477 449v-122h-192v-327h-110v326h-170l-4 73h377v40z" />
    <glyph glyph-name="U" unicode="U" horiz-adv-x="519" 
d="M459 399l-1 -357q-121 -78 -223 -78q-123 0 -235 72v305l-46 6q-23 9 -23 38v18l179 1l-1 -316q25 -13 49 -25q40 -18 76 -18q58 0 116 44v310h109z" />
    <glyph glyph-name="V" unicode="V" horiz-adv-x="558" 
d="M0 396q0 -181 131 -325q54 -61 130 -109q72 51 123 113q124 148 124 322h-111q1 -178 -136 -315q-148 136 -148 314h-113z" />
    <glyph glyph-name="W" unicode="W" horiz-adv-x="698" 
d="M639 399l-1 -357q-60 -39 -174 -61q-87 -17 -148 -17q-65 0 -145 14q-111 19 -171 58v305l-46 6q-23 9 -23 38v18l179 1l-1 -316q77 -31 151 -39l1 311l108 20v-331q80 8 161 40v310h109z" />
    <glyph glyph-name="X" unicode="X" horiz-adv-x="513" 
d="M447 -20l-116 1q0 144 -102 255q-113 -110 -113 -255l-116 -1q0 194 142 326q-67 36 -136 31l-6 66q27 5 56 5q84 0 166 -43q68 38 135 44v40l99 10l-1 -122q-74 -3 -142 -39q134 -128 134 -318z" />
    <glyph glyph-name="Y" unicode="Y" horiz-adv-x="567" 
d="M508 401l-1 -242q0 -100 -90 -147q-73 -39 -196 -39q-67 0 -136 12l5 70q47 -4 88 -4q218 0 218 108l-319 3q-27 0 -51 19q-28 21 -28 56l1 167l108 1l1 -160l290 1l1 156z" />
    <glyph glyph-name="Z" unicode="Z" horiz-adv-x="491" 
d="M449 325q-50 -7 -111 -40q-99 -53 -170 -149q-68 -91 -68 -164h-106q0 85 73 192q66 95 155 161h-208v77l435 -1v-76zM450 82l-22 -85h-385l30 85h377z" />
    <glyph glyph-name="bracketleft" unicode="[" horiz-adv-x="203" 
d="M180 494q-84 0 -133 -53.5t-49 -140.5v-190q0 -85 50 -142.5t132 -57.5h19v80h-19q-46 0 -61 39q-10 25 -10 87v172q0 62 10 87q15 39 61 39h19v80h-19z" />
    <glyph glyph-name="backslash" unicode="\" horiz-adv-x="295" 
d="M-3 494h99l160 -573h-99z" />
    <glyph glyph-name="bracketright" unicode="]" horiz-adv-x="260" 
d="M17 494q84 0 133 -53.5t49 -140.5v-190q0 -85 -48 -142q-51 -58 -134 -58h-19v80h19q46 0 62 39q9 25 9 87v172q0 62 -9 87q-16 39 -62 39h-19v80h19z" />
    <glyph glyph-name="asciicircum" unicode="^" 
d="M933 261q-33 -14 -60 -54q-37 -56 -45 -64q-32 -31 -87 -31h-49l-48 1q-61 1 -90 -9q-40 -14 -61 -62q-22 49 -64 63q-27 9 -92 9q-13 0 -38 -1t-38 -1q-99 0 -140 75q-12 22 -25 45q-13 15 -43 29q45 22 58 49q48 99 140 99v1q16 0 48 -1t48 -1q61 0 86 10q37 15 60 61
q21 -41 52 -57q27 -14 76 -14q19 0 57.5 1t57.5 1v-1q56 0 90 -30q26 -22 50 -69q15 -30 57 -49zM785 164v171q-15 14 -40 14q-28 0 -42 -14v-171h28v49h27v-49h27zM672 165v182h-27v-182h27zM614 237v98q-19 12 -39 12h-42v-182h27v48h31zM508 177v158q-16 15 -41 15
t-40 -15v-158q17 -15 43 -15q18 0 38 15zM402 323v24h-81v-24h27v-158h27v158h27zM296 177v170h-27v-158h-27v158h-27v-170q17 -15 43 -15q18 0 38 15zM758 238h-27v85q3 3 11 3h4q7 0 12 -3v-85zM587 238h-27v85h27v-85zM481 189h-27v134h27v-134z" />
    <glyph glyph-name="underscore" unicode="_" 
d="M933 261q-33 -14 -60 -54q-37 -56 -45 -64q-32 -31 -87 -31h-49l-48 1q-61 1 -90 -9q-40 -14 -61 -62q-22 49 -64 63q-27 9 -92 9q-13 0 -38 -1t-38 -1q-99 0 -140 75q-12 22 -25 45q-13 15 -43 29q45 22 58 49q48 99 140 99v1q16 0 48 -1t48 -1q61 0 86 10q37 15 60 61
q21 -41 52 -57q27 -14 76 -14q19 0 57.5 1t57.5 1v-1q56 0 90 -30q26 -22 50 -69q15 -30 57 -49zM785 164v171q-15 14 -40 14q-28 0 -42 -14v-171h28v49h27v-49h27zM672 165v182h-27v-182h27zM614 237v98q-19 12 -39 12h-42v-182h27v48h31zM508 177v158q-16 15 -41 15
t-40 -15v-158q17 -15 43 -15q18 0 38 15zM402 323v24h-81v-24h27v-158h27v158h27zM296 177v170h-27v-158h-27v158h-27v-170q17 -15 43 -15q18 0 38 15zM758 238h-27v85q3 3 11 3h4q7 0 12 -3v-85zM587 238h-27v85h27v-85zM481 189h-27v134h27v-134z" />
    <glyph glyph-name="grave" unicode="`" 
d="M933 261q-33 -14 -60 -54q-37 -56 -45 -64q-32 -31 -87 -31h-49l-48 1q-61 1 -90 -9q-40 -14 -61 -62q-22 49 -64 63q-27 9 -92 9q-13 0 -38 -1t-38 -1q-99 0 -140 75q-12 22 -25 45q-13 15 -43 29q45 22 58 49q48 99 140 99v1q16 0 48 -1t48 -1q61 0 86 10q37 15 60 61
q21 -41 52 -57q27 -14 76 -14q19 0 57.5 1t57.5 1v-1q56 0 90 -30q26 -22 50 -69q15 -30 57 -49zM785 164v171q-15 14 -40 14q-28 0 -42 -14v-171h28v49h27v-49h27zM672 165v182h-27v-182h27zM614 237v98q-19 12 -39 12h-42v-182h27v48h31zM508 177v158q-16 15 -41 15
t-40 -15v-158q17 -15 43 -15q18 0 38 15zM402 323v24h-81v-24h27v-158h27v158h27zM296 177v170h-27v-158h-27v158h-27v-170q17 -15 43 -15q18 0 38 15zM758 238h-27v85q3 3 11 3h4q7 0 12 -3v-85zM587 238h-27v85h27v-85zM481 189h-27v134h27v-134z" />
    <glyph glyph-name="a" unicode="a" horiz-adv-x="540" 
d="M475 0l-397 2q-27 0 -51 19q-28 22 -28 56l1 171h365q0 99 -133 99q-57 0 -172 -18l-32 74q112 31 203 31q115 0 179.5 -48.5t64.5 -137.5v-248zM366 85v90h-257v-90h257z" />
    <glyph glyph-name="b" unicode="b" horiz-adv-x="535" 
d="M476 245q1 -29 -20 -50q2 -19 2 -36q0 -198 -220 -198q-97 0 -238 39v399h475zM367 253v73h-258v-73h258zM341 170h-232v-119q59 -7 99 -7q136 0 136 95q0 14 -3 31z" />
    <glyph glyph-name="c" unicode="c" horiz-adv-x="464" 
d="M437 449v-122l-327 -1v-253h327l-22 -73h-335q-27 0 -51 19q-28 21 -28 56v324h337v40z" />
    <glyph glyph-name="d" unicode="d" horiz-adv-x="539" 
d="M476 74q0 -35 -28 -56q-23 -19 -51 -19l-397 -1v402q72 -31 266 -31q63 0 110 6v84l99 10zM374 293q-14 1 -73 -2q-67 -4 -102 -4q-62 0 -90 9v-214h265v211z" />
    <glyph glyph-name="e" unicode="e" horiz-adv-x="498" 
d="M445 246q0 -35 -28 -57q-24 -18 -51 -18h-256v-98h327l-22 -73h-335q-27 0 -51 19q-28 21 -28 56v324h337v40l99 10v-122l-327 -1v-72h335v-8z" />
    <glyph glyph-name="f" unicode="f" horiz-adv-x="468" 
d="M444 249q0 -35 -28 -57q-24 -18 -51 -18h-256v-182l-109 6v404h337v40l99 10v-122l-327 -1v-72h335v-8z" />
    <glyph glyph-name="g" unicode="g" horiz-adv-x="518" 
d="M458 449l-1 -123h-346v-253l243 1v97h-55q-27 0 -51 18q-28 22 -28 57v8h236l1 -178q0 -35 -28 -56q-24 -19 -52 -19l-296 -1q-27 0 -51 18q-28 22 -28 57v324h357v40z" />
    <glyph glyph-name="h" unicode="h" horiz-adv-x="544" 
d="M481 0h-104v166q-45 -12 -109 -12q-66 0 -159 12v-162l-109 -10v347l-46 6q-23 9 -23 38v18h178v-147q118 -14 268 -18v165h99z" />
    <glyph glyph-name="i" unicode="i" horiz-adv-x="187" 
d="M109 399v-399h-109v399h109z" />
    <glyph glyph-name="j" unicode="j" horiz-adv-x="486" 
d="M427 404l-1 -245q0 -100 -89 -147q-74 -39 -196 -39q-67 0 -137 12l6 70q30 -3 62 -3q99 0 162 23q83 30 84 96l3 173l-123 -1l-46 6q-23 9 -23 38v18z" />
    <glyph glyph-name="k" unicode="k" horiz-adv-x="529" 
d="M478 7q-24 -4 -52 -4q-106 0 -180 45q-92 58 -90 170h-47v-218h-109v400h109v-99h258v99h108l1 -107q1 -34 -27 -56q-24 -19 -52 -19h-131q0 -72 66 -111q52 -32 119 -32q12 0 21 1z" />
    <glyph glyph-name="l" unicode="l" horiz-adv-x="447" 
d="M437 73l-22 -73h-334q-28 0 -51 19q-28 21 -29 56l-2 261l-46 6q-23 9 -23 38v18l179 1l1 -326h327z" />
    <glyph glyph-name="m" unicode="m" horiz-adv-x="699" 
d="M639 399l-1 -399h-108v312q-74 -44 -161 -50l-1 -273l-108 -33v306q-81 6 -150 44l-1 -302l-109 -10v347l-46 6q-23 9 -23 38v18l179 1q42 -19 84 -37q59 -22 120 -22q97 0 216 54h109z" />
    <glyph glyph-name="n" unicode="n" horiz-adv-x="568" 
d="M518 -60q-36 -7 -64 -7q-78 0 -150 63q-81 71 -195 254v-246l-109 -10v347l-46 6q-23 9 -23 38v18h190q111 -202 256 -372v372h98v-407q14 -3 17 -2q16 5 21 6z" />
    <glyph glyph-name="o" unicode="o" horiz-adv-x="520" 
d="M459 74q0 -35 -28 -56q-24 -19 -51 -19h-299q-27 0 -51 19q-28 21 -28 56l1 329h178v36l99 10l-1 -46h179zM349 72v258h-238v-258h238z" />
    <glyph glyph-name="p" unicode="p" horiz-adv-x="511" 
d="M476 245q1 -34 -27 -56q-24 -19 -52 -19h-288v-170h-109v399h475zM367 253v73h-258v-73h258z" />
    <glyph glyph-name="q" unicode="q" horiz-adv-x="568" 
d="M509 74q0 -35 -28 -56q-24 -19 -51 -19h-124q2 -59 29 -83q23 -22 74 -22q15 0 33 2l14 -50q-36 -6 -68 -6q-81 0 -128 39.5t-47 116.5v3h-132q-27 0 -51 19q-28 21 -28 56l1 329h505zM399 72v258h-288v-258h102l-1 132l94 1v-133h93z" />
    <glyph glyph-name="r" unicode="r" horiz-adv-x="532" 
d="M478 7q-57 -9 -105 -9q-220 0 -217 172h-47v-170h-109v399h475l1 -154q1 -34 -27 -56q-24 -19 -52 -19h-131q0 -99 132 -99q27 0 74 5zM367 253v73h-258v-73h258z" />
    <glyph glyph-name="s" unicode="s" horiz-adv-x="505" 
d="M448 254q1 -23 1 -45q0 -254 -235 -254q-86 0 -208 33l31 74q112 -18 164 -18q70 0 103 27q37 30 37 100l-255 1q-28 0 -54 17q-31 21 -31 55v155h337v40l99 10v-122l-327 -1v-72h338z" />
    <glyph glyph-name="t" unicode="t" horiz-adv-x="511" 
d="M477 449v-122h-192v-327h-110v326h-170l-4 73h377v40z" />
    <glyph glyph-name="u" unicode="u" horiz-adv-x="519" 
d="M459 399l-1 -357q-121 -78 -223 -78q-123 0 -235 72v305l-46 6q-23 9 -23 38v18l179 1l-1 -316q25 -13 49 -25q40 -18 76 -18q58 0 116 44v310h109z" />
    <glyph glyph-name="v" unicode="v" horiz-adv-x="558" 
d="M0 396q0 -181 131 -325q54 -61 130 -109q72 51 123 113q124 148 124 322h-111q1 -178 -136 -315q-148 136 -148 314h-113z" />
    <glyph glyph-name="w" unicode="w" horiz-adv-x="698" 
d="M639 399l-1 -357q-60 -39 -174 -61q-87 -17 -148 -17q-65 0 -145 14q-111 19 -171 58v305l-46 6q-23 9 -23 38v18l179 1l-1 -316q77 -31 151 -39l1 311l108 20v-331q80 8 161 40v310h109z" />
    <glyph glyph-name="x" unicode="x" horiz-adv-x="513" 
d="M447 -20l-116 1q0 144 -102 255q-113 -110 -113 -255l-116 -1q0 194 142 326q-67 36 -136 31l-6 66q27 5 56 5q84 0 166 -43q68 38 135 44v40l99 10l-1 -122q-74 -3 -142 -39q134 -128 134 -318z" />
    <glyph glyph-name="y" unicode="y" horiz-adv-x="567" 
d="M508 401l-1 -242q0 -100 -90 -147q-73 -39 -196 -39q-67 0 -136 12l5 70q47 -4 88 -4q218 0 218 108l-319 3q-27 0 -51 19q-28 21 -28 56l1 167l108 1l1 -160l290 1l1 156z" />
    <glyph glyph-name="z" unicode="z" horiz-adv-x="491" 
d="M450 325q-51 -7 -111 -40q-100 -53 -170 -149q-68 -91 -68 -164h-107q0 85 74 192q65 95 154 161h-208v77l435 -1zM450 82l-22 -85h-385l30 85h377z" />
    <glyph glyph-name="braceleft" unicode="{" horiz-adv-x="203" 
d="M180 494q-84 0 -133 -53.5t-49 -140.5v-190q0 -85 50 -142.5t132 -57.5h19v80h-19q-46 0 -61 39q-10 25 -10 87v172q0 62 10 87q15 39 61 39h19v80h-19z" />
    <glyph glyph-name="bar" unicode="|" horiz-adv-x="160" 
d="M-3 494h99v-573h-99v573z" />
    <glyph glyph-name="braceright" unicode="}" horiz-adv-x="260" 
d="M17 494q84 0 133 -53.5t49 -140.5v-190q0 -85 -48 -142q-51 -58 -134 -58h-19v80h19q46 0 62 39q9 25 9 87v172q0 62 -9 87q-16 39 -62 39h-19v80h19z" />
    <glyph glyph-name="asciitilde" unicode="~" 
d="M933 261q-33 -14 -60 -54q-37 -56 -45 -64q-32 -31 -87 -31h-49l-48 1q-61 1 -90 -9q-40 -14 -61 -62q-22 49 -64 63q-27 9 -92 9q-13 0 -38 -1t-38 -1q-99 0 -140 75q-12 22 -25 45q-13 15 -43 29q45 22 58 49q48 99 140 99v1q16 0 48 -1t48 -1q61 0 86 10q37 15 60 61
q21 -41 52 -57q27 -14 76 -14q19 0 57.5 1t57.5 1v-1q56 0 90 -30q26 -22 50 -69q15 -30 57 -49zM785 164v171q-15 14 -40 14q-28 0 -42 -14v-171h28v49h27v-49h27zM672 165v182h-27v-182h27zM614 237v98q-19 12 -39 12h-42v-182h27v48h31zM508 177v158q-16 15 -41 15
t-40 -15v-158q17 -15 43 -15q18 0 38 15zM402 323v24h-81v-24h27v-158h27v158h27zM296 177v170h-27v-158h-27v158h-27v-170q17 -15 43 -15q18 0 38 15zM758 238h-27v85q3 3 11 3h4q7 0 12 -3v-85zM587 238h-27v85h27v-85zM481 189h-27v134h27v-134z" />
    <glyph glyph-name="exclamdown" unicode="&#xa1;" 
d="M53 240q33 14 60 54q37 56 45 64q32 31 87 31h49l48 -1q61 -1 90 9q40 14 61 62q22 -49 64 -63q27 -9 92 -9q13 0 38 1t38 1q99 0 140 -75q12 -22 25 -45q13 -15 43 -29q-45 -22 -58 -49q-48 -99 -140 -99v-1q-16 0 -48 1t-48 1q-61 0 -86 -10q-37 -15 -60 -61
q-21 41 -52 57q-27 14 -76 14q-19 0 -57.5 -1t-57.5 -1v1q-56 0 -90 30q-26 22 -50 69q-15 30 -57 49zM201 337v-171q15 -14 40 -14q28 0 42 14v171h-28v-49h-27v49h-27zM314 336v-182h27v182h-27zM372 264v-98q19 -12 39 -12h42v182h-27v-48h-31zM478 324v-158
q16 -15 41 -15t40 15v158q-17 15 -43 15q-18 0 -38 -15zM584 178v-24h81v24h-27v158h-27v-158h-27zM690 324v-170h27v158h27v-158h27v170q-17 15 -43 15q-18 0 -38 -15zM228 263h27v-85q-3 -3 -11 -3h-4q-7 0 -12 3v85zM399 263h27v-85h-27v85zM505 312h27v-134h-27v134z
" />
    <glyph glyph-name="cent" unicode="&#xa2;" horiz-adv-x="520" 
d="M321 399h16v40l99 10v-122h-135l-71 -254h206l-22 -73h-204l-22 -79h-99l22 79h-32q-27 0 -51 19q-28 21 -28 56v324h222l27 95h99zM202 326h-93v-253h22z" />
    <glyph glyph-name="brokenbar" unicode="&#xa6;" horiz-adv-x="160" 
d="M-3 659h99v-246h-99v246zM-3 -70h99v-246h-99v246z" />
    <glyph glyph-name="minus" unicode="&#xad;" horiz-adv-x="410" 
d="M345 254v-8q0 -35 -28 -57q-24 -18 -51 -18h-256v83h335z" />
    <glyph glyph-name="minus" unicode="&#x2212;" horiz-adv-x="410" 
d="M345 254v-8q0 -35 -28 -57q-24 -18 -51 -18h-256v83h335z" />
    <glyph glyph-name="twosuperior" unicode="&#xb2;" horiz-adv-x="495" 
d="M170 439l99 10v-46l178 -4v-155q0 -34 -31 -55q-25 -17 -54 -17l-254 -1q-1 -70 36 -100q33 -27 103 -27q52 0 164 18l32 -74q-123 -33 -209 -33q-235 0 -235 254q0 22 2 45h337v72l-327 1l1 72l158 4v36z" />
    <glyph glyph-name="threesuperior" unicode="&#xb3;" horiz-adv-x="534" 
d="M0 399v-73h367v-73h-267v-83h241q2 -14 2 -26q0 -56 -52.5 -80.5t-167.5 -24.5q-52 0 -123 5v-44q141 -39 238 -39q220 0 220 198q0 17 -2 36q21 21 20 50l-1 154l-196 4l1 46l-99 -10v-36z" />
    <glyph glyph-name="periodcentered" unicode="&#xb7;" horiz-adv-x="284" 
d="M-3 228h84v-53h-84v53z" />
    <glyph glyph-name="periodcentered" unicode="&#x2219;" horiz-adv-x="284" 
d="M-3 228h84v-53h-84v53z" />
    <glyph glyph-name="onesuperior" unicode="&#xb9;" horiz-adv-x="173" 
d="M109 402l-1 -402h-108v402h109z" />
    <glyph glyph-name="Thorn" unicode="&#xde;" horiz-adv-x="511" 
d="M367 155v73h-258v-73h258zM109 301h366l1 -154q1 -34 -27 -56q-24 -19 -52 -19h-288v-170h-109v500h109v-101z" />
    <glyph glyph-name="afii10023" unicode="&#x401;" horiz-adv-x="495" 
d="M445 246q0 -35 -28 -57q-24 -18 -51 -18h-256v-98h327l-22 -73h-335q-27 0 -51 19q-28 21 -28 56v324h337v40l99 10v-123h-327v-72h335v-8zM78 483h99v-63h-99v63zM230 484h99v-63h-99v63z" />
    <glyph glyph-name="afii10017" unicode="&#x410;" horiz-adv-x="555" 
d="M477 -17l-397 2q-27 0 -51 19q-28 22 -28 56l1 171h365q0 99 -133 99q-57 0 -172 -18l-32 74q112 31 203 31q115 0 179.5 -48.5t64.5 -137.5v-248zM368 68v90h-257v-90h257z" />
    <glyph glyph-name="afii10018" unicode="&#x411;" horiz-adv-x="535" 
d="M458 253v-94q0 -198 -220 -198q-97 0 -238 39v399h367v-73h-258v-73h349zM341 170h-232v-119q59 -7 99 -7q136 0 136 95q0 14 -3 31z" />
    <glyph glyph-name="afii10019" unicode="&#x412;" horiz-adv-x="535" 
d="M476 245q1 -29 -20 -50q2 -19 2 -36q0 -198 -220 -198q-97 0 -238 39v399h475zM367 253v73h-258v-73h258zM341 170h-232v-119q59 -7 99 -7q136 0 136 95q0 14 -3 31z" />
    <glyph glyph-name="afii10020" unicode="&#x413;" horiz-adv-x="468" 
d="M109 -8l-109 6v404h337v40l99 10v-123h-327v-337z" />
    <glyph glyph-name="afii10021" unicode="&#x414;" horiz-adv-x="564" 
d="M127 97h265v222h-265v-222zM322 403h179v-305h26v-156l-115 -9v67h-297v-58l-113 -9v165h23v229q0 35 28 56q23 19 51 19h119v29l99 10v-38z" />
    <glyph glyph-name="afii10022" unicode="&#x415;" horiz-adv-x="495" 
d="M445 246q0 -35 -28 -57q-24 -18 -51 -18h-256v-98h327l-22 -73h-335q-27 0 -51 19q-28 21 -28 56v324h337v40l99 10v-122l-327 -1v-72h335v-8z" />
    <glyph glyph-name="afii10024" unicode="&#x416;" horiz-adv-x="883" 
d="M463 0h-109v99h-228v-99h-108l-1 107q-1 34 27 56q24 19 52 19h131q0 72 -66 111q-52 32 -119 32q-12 0 -21 -1l-6 69q24 4 52 4q106 0 180 -45q92 -58 90 -170h17v218h109v-218h17q-2 112 90 170q74 45 180 45q28 0 52 -4l-6 -69q-9 1 -21 1q-67 0 -119 -32
q-66 -39 -66 -111h131q28 0 52 -19q28 -22 27 -56l-1 -107h-108v99h-228v-99z" />
    <glyph glyph-name="afii10025" unicode="&#x417;" horiz-adv-x="534" 
d="M0 399v-73h367v-73h-237v-83h211q2 -14 2 -26q0 -56 -52.5 -80.5t-167.5 -24.5q-52 0 -123 5v-44q141 -39 238 -39q220 0 220 198q0 17 -2 36q21 21 20 50l-1 154l-196 4l1 46l-99 -10v-36z" />
    <glyph glyph-name="afii10026" unicode="&#x418;" horiz-adv-x="568" 
d="M-38 0q5 -1 21 -6q3 -1 17 2v407h98v-372q145 170 256 372h190v-18q0 -29 -23 -38l-46 -6v-347l-109 10v246q-114 -183 -195 -254q-72 -63 -150 -63q-28 0 -64 7z" />
    <glyph glyph-name="afii10027" unicode="&#x419;" horiz-adv-x="568" 
d="M107 487h66v-28q0 -6 1 -6q4 -2 20 -2h56q16 0 20 2q1 0 1 6v28h67q0 -49 -24.5 -74.5t-61.5 -25.5h-62q-37 0 -60 25.5t-23 74.5zM-38 0q5 -1 21 -6q3 -1 17 2v407h98v-372q145 170 256 372h190v-18q0 -29 -23 -38l-46 -6v-347l-109 10v246q-114 -183 -195 -254
q-72 -63 -150 -63q-28 0 -64 7z" />
    <glyph glyph-name="afii10028" unicode="&#x41a;" horiz-adv-x="529" 
d="M478 7q-24 -4 -52 -4q-106 0 -180 45q-92 58 -90 170h-47v-218h-109v400h109v-99h258v99h108l1 -107q1 -34 -27 -56q-24 -19 -52 -19h-131q0 -72 66 -111q52 -32 119 -32q12 0 21 1z" />
    <glyph glyph-name="afii10029" unicode="&#x41b;" horiz-adv-x="558" 
d="M113 -1q0 178 148 314q137 -137 136 -315h111q0 174 -124 322q-51 62 -123 113q-76 -48 -130 -109q-131 -144 -131 -325h113z" />
    <glyph glyph-name="afii10030" unicode="&#x41c;" horiz-adv-x="699" 
d="M639 399l-1 -399h-108v312q-74 -44 -161 -50l-1 -273l-108 -33v306q-81 6 -150 44l-1 -302l-109 -10v347l-46 6q-23 9 -23 38v18l179 1q42 -19 84 -37q59 -22 120 -22q97 0 216 54h109z" />
    <glyph glyph-name="afii10031" unicode="&#x41d;" horiz-adv-x="544" 
d="M491 0h-103v166q-46 -12 -110 -12q-66 0 -159 12v-162l-109 -10v347l-46 6q-23 9 -23 38v18h179l-1 -147q118 -14 269 -18v165h98z" />
    <glyph glyph-name="afii10032" unicode="&#x41e;" horiz-adv-x="520" 
d="M459 74q0 -35 -28 -56q-24 -19 -51 -19h-299q-27 0 -51 19q-28 21 -28 56l1 329h178v36l99 10l-1 -46h179zM349 72v258h-238v-258h238z" />
    <glyph glyph-name="afii10033" unicode="&#x41f;" horiz-adv-x="544" 
d="M491 0h-103v316h-269v-312l-109 -10v347l-46 6q-23 9 -23 38v18h545z" />
    <glyph glyph-name="afii10034" unicode="&#x420;" horiz-adv-x="511" 
d="M476 245q1 -34 -27 -56q-24 -19 -52 -19h-288v-170h-109v399h475zM367 253v73h-258v-73h258z" />
    <glyph glyph-name="afii10035" unicode="&#x421;" horiz-adv-x="464" 
d="M437 449v-122l-327 -1v-253h327l-22 -73h-335q-27 0 -51 19q-28 21 -28 56v324h337v40z" />
    <glyph glyph-name="afii10036" unicode="&#x422;" horiz-adv-x="509" 
d="M477 449v-122h-192v-327h-110v326h-170l-4 73h377v40z" />
    <glyph glyph-name="afii10037" unicode="&#x423;" horiz-adv-x="567" 
d="M508 401l-1 -242q0 -100 -90 -147q-73 -39 -196 -39q-67 0 -136 12l5 70q47 -4 88 -4q218 0 218 108l-319 3q-27 0 -51 19q-28 21 -28 56l1 167l108 1l1 -160l290 1l1 156z" />
    <glyph glyph-name="afii10038" unicode="&#x424;" horiz-adv-x="592" 
d="M223 330h-112v-228h112v228zM223 29h-142q-27 0 -51 19q-28 21 -28 56v299h229v36l99 10l-1 -46h230v-299q0 -35 -28 -56q-24 -19 -51 -19h-148v-29h-109v29zM332 102h117v228h-117v-228z" />
    <glyph glyph-name="afii10039" unicode="&#x425;" horiz-adv-x="513" 
d="M447 -20l-116 1q0 144 -102 255q-113 -110 -113 -255l-116 -1q0 194 142 326q-67 36 -136 31l-6 66q27 5 56 5q84 0 166 -43q68 38 135 44v40l99 10l-1 -122q-74 -3 -142 -39q134 -128 134 -318z" />
    <glyph glyph-name="afii10040" unicode="&#x426;" horiz-adv-x="544" 
d="M415 -1h-405v341h-69v18q0 29 23 38l46 6h109v-316h269v316h103v-320h30v-153h-106v70z" />
    <glyph glyph-name="afii10041" unicode="&#x427;" horiz-adv-x="529" 
d="M81 108q-28 0 -52 19q-28 22 -27 56v217h109v-209h258v209h109v-400h-109v108h-288z" />
    <glyph glyph-name="afii10042" unicode="&#x428;" horiz-adv-x="698" 
d="M639 399l-1 -357q-60 -39 -174 -61q-87 -17 -148 -17q-65 0 -145 14q-111 19 -171 58v305l-46 6q-23 9 -23 38v18l179 1l-1 -316q77 -31 151 -39l1 311l108 20v-331q80 8 161 40v310h109z" />
    <glyph glyph-name="afii10043" unicode="&#x429;" horiz-adv-x="698" 
d="M560 9q-35 -16 -96 -28q-87 -17 -148 -17q-65 0 -145 14q-111 19 -171 58v305l-46 6q-23 9 -23 38v18l179 1l-1 -316q77 -31 151 -39l1 311l108 20v-331q80 8 161 40v310h109l-1 -308h23v-144h-101v62z" />
    <glyph glyph-name="afii10044" unicode="&#x42a;" horiz-adv-x="601" 
d="M457 73v73h-258v-73h258zM199 399v-170h366v-154q1 -34 -26 -56q-24 -19 -52 -19h-397v337h-12l-46 6q-23 9 -23 38v18h190z" />
    <glyph glyph-name="afii10045" unicode="&#x42b;" horiz-adv-x="641" 
d="M367 73v73h-258v-73h258zM475 229v-154q1 -34 -26 -56q-24 -19 -52 -19h-397v399h109v-170h366zM609 399l-1 -399h-108v399h109z" />
    <glyph glyph-name="afii10046" unicode="&#x42c;" horiz-adv-x="511" 
d="M367 73v73h-258v-73h258zM475 229v-154q1 -34 -26 -56q-24 -19 -52 -19h-397v399h109v-170h366z" />
    <glyph glyph-name="afii10047" unicode="&#x42d;" horiz-adv-x="464" 
d="M328 234v92h-327v123l99 -10v-40h337v-324q0 -35 -28 -56q-24 -19 -51 -19h-335l-22 73h327v78h-39q-27 0 -51 18q-28 22 -28 57v8h118z" />
    <glyph glyph-name="afii10048" unicode="&#x42e;" horiz-adv-x="758" 
d="M587 72v258h-238v-258h238zM241 250v153h178v36l99 10l-1 -46h179l1 -329q0 -35 -28 -56q-24 -19 -51 -19h-299q-27 0 -51 19q-28 21 -28 56v86q-25 2 -53 6v-162l-109 -10v347l-46 6q-23 9 -23 38v18h178v-147q26 -3 54 -6z" />
    <glyph glyph-name="afii10049" unicode="&#x42f;" horiz-adv-x="532" 
d="M6 76q47 -5 74 -5q132 0 132 99h-131q-28 0 -52 19q-28 22 -27 56l1 154h475v-399h-109v170h-47q3 -172 -217 -172q-48 0 -105 9zM369 253v73h-258v-73h258z" />
    <glyph glyph-name="afii10065" unicode="&#x430;" horiz-adv-x="540" 
d="M475 0l-397 2q-27 0 -51 19q-28 22 -28 56l1 171h365q0 99 -133 99q-57 0 -172 -18l-32 74q112 31 203 31q115 0 179.5 -48.5t64.5 -137.5v-248zM366 85v90h-257v-90h257z" />
    <glyph glyph-name="afii10066" unicode="&#x431;" horiz-adv-x="511" 
d="M109 229h366v-154q1 -34 -26 -56q-24 -19 -52 -19h-397v402h337v40l99 10v-123h-327v-100zM109 73h258v73h-258v-73z" />
    <glyph glyph-name="afii10067" unicode="&#x432;" horiz-adv-x="535" 
d="M476 245q1 -29 -20 -50q2 -19 2 -36q0 -198 -220 -198q-97 0 -238 39v399h475zM367 253v73h-258v-73h258zM341 170h-232v-119q59 -7 99 -7q136 0 136 95q0 14 -3 31z" />
    <glyph glyph-name="afii10068" unicode="&#x433;" horiz-adv-x="468" 
d="M109 -8l-109 6v404h337v40l99 10v-123h-327v-337z" />
    <glyph glyph-name="afii10069" unicode="&#x434;" horiz-adv-x="564" 
d="M127 97h265v222h-265v-222zM317 403h184v-305h26v-156l-115 -9v67h-297v-58l-113 -9v165h23v229q0 35 28 56q23 19 51 19h114v29l99 10v-38z" />
    <glyph glyph-name="afii10070" unicode="&#x435;" horiz-adv-x="498" 
d="M445 246q0 -35 -28 -57q-24 -18 -51 -18h-256v-98h327l-22 -73h-335q-27 0 -51 19q-28 21 -28 56v324h337v40l99 10v-122l-327 -1v-72h335v-8z" />
    <glyph glyph-name="afii10072" unicode="&#x436;" horiz-adv-x="883" 
d="M463 301h228v99h108l1 -107q1 -34 -27 -56q-24 -19 -52 -19h-131q0 -72 66 -111q52 -32 119 -32q12 0 21 1l6 -69q-24 -4 -52 -4q-106 0 -180 45q-92 58 -90 170h-17v-218h-109v218h-17q2 -112 -90 -170q-74 -45 -180 -45q-28 0 -52 4l6 69q9 -1 21 -1q67 0 119 32
q66 39 66 111h-131q-28 0 -52 19q-28 22 -27 56l1 107h108v-99h228v99h109v-99z" />
    <glyph glyph-name="afii10073" unicode="&#x437;" horiz-adv-x="534" 
d="M0 399v-73h367v-73h-237v-83h211q2 -14 2 -26q0 -56 -52.5 -80.5t-167.5 -24.5q-52 0 -123 5v-44q141 -39 238 -39q220 0 220 198q0 17 -2 36q21 21 20 50l-1 154l-196 4l1 46l-99 -10v-36z" />
    <glyph glyph-name="afii10074" unicode="&#x438;" horiz-adv-x="568" 
d="M-38 0q5 -1 21 -6q3 -1 17 2v407h98v-372q145 170 256 372h190v-18q0 -29 -23 -38l-46 -6v-347l-109 10v246q-114 -183 -195 -254q-72 -63 -150 -63q-28 0 -64 7z" />
    <glyph glyph-name="afii10075" unicode="&#x439;" horiz-adv-x="568" 
d="M-38 0q5 -1 21 -6q3 -1 17 2v407h98v-372q145 170 256 372h190v-18q0 -29 -23 -38l-46 -6v-347l-109 10v246q-114 -183 -195 -254q-72 -63 -150 -63q-28 0 -64 7zM172 429h99v-63h-99v63z" />
    <glyph glyph-name="afii10076" unicode="&#x43a;" horiz-adv-x="529" 
d="M478 7q-24 -4 -52 -4q-106 0 -180 45q-92 58 -90 170h-47v-218h-109v400h109v-99h258v99h108l1 -107q1 -34 -27 -56q-24 -19 -52 -19h-131q0 -72 66 -111q52 -32 119 -32q12 0 21 1z" />
    <glyph glyph-name="afii10077" unicode="&#x43b;" horiz-adv-x="558" 
d="M113 -1q0 178 148 314q137 -137 136 -315h111q0 174 -124 322q-51 62 -123 113q-76 -48 -130 -109q-131 -144 -131 -325h113z" />
    <glyph glyph-name="afii10078" unicode="&#x43c;" horiz-adv-x="699" 
d="M639 399l-1 -399h-108v312l-215 -339l-205 333l-1 -302l-109 -10v347l-46 6q-23 9 -23 38v18l239 1l144 -239l156 234h169z" />
    <glyph glyph-name="afii10079" unicode="&#x43d;" horiz-adv-x="544" 
d="M491 0h-103v166q-46 -12 -110 -12q-66 0 -159 12v-162l-109 -10v347l-46 6q-23 9 -23 38v18h179l-1 -147q118 -14 269 -18v165h98z" />
    <glyph glyph-name="afii10080" unicode="&#x43e;" horiz-adv-x="520" 
d="M459 74q0 -35 -28 -56q-24 -19 -51 -19h-299q-27 0 -51 19q-28 21 -28 56l1 329h178v36l99 10l-1 -46h179zM349 72v258h-238v-258h238z" />
    <glyph glyph-name="afii10081" unicode="&#x43f;" horiz-adv-x="544" 
d="M491 0h-103v316h-269v-312l-109 -10v347l-46 6q-23 9 -23 38v18h545z" />
    <glyph glyph-name="afii10082" unicode="&#x440;" horiz-adv-x="511" 
d="M476 245q1 -34 -27 -56q-24 -19 -52 -19h-288v-170h-109v399h475zM367 253v73h-258v-73h258z" />
    <glyph glyph-name="afii10083" unicode="&#x441;" horiz-adv-x="464" 
d="M437 449v-122l-327 -1v-253h327l-22 -73h-335q-27 0 -51 19q-28 21 -28 56v324h337v40z" />
    <glyph glyph-name="afii10084" unicode="&#x442;" horiz-adv-x="511" 
d="M477 449v-122h-192v-327h-110v326h-170l-4 73h377v40z" />
    <glyph glyph-name="afii10085" unicode="&#x443;" horiz-adv-x="567" 
d="M508 401l-1 -242q0 -100 -90 -147q-73 -39 -196 -39q-67 0 -136 12l5 70q47 -4 88 -4q218 0 218 108l-319 3q-27 0 -51 19q-28 21 -28 56l1 167l108 1l1 -160l290 1l1 156z" />
    <glyph glyph-name="afii10086" unicode="&#x444;" horiz-adv-x="592" 
d="M223 330h-112v-228h112v228zM223 29h-142q-27 0 -51 19q-28 21 -28 56v299h229v36l99 10l-1 -46h230v-299q0 -35 -28 -56q-24 -19 -51 -19h-148v-29h-109v29zM332 102h117v228h-117v-228z" />
    <glyph glyph-name="afii10087" unicode="&#x445;" horiz-adv-x="513" 
d="M447 -20l-116 1q0 144 -102 255q-113 -110 -113 -255l-116 -1q0 194 142 326q-67 36 -136 31l-6 66q27 5 56 5q84 0 166 -43q68 38 135 44v40l99 10l-1 -122q-74 -3 -142 -39q134 -128 134 -318z" />
    <glyph glyph-name="afii10088" unicode="&#x446;" horiz-adv-x="544" 
d="M415 -1h-405v341h-69v18q0 29 23 38l46 6h109v-316h269v316h103v-320h30v-153h-106v70z" />
    <glyph glyph-name="afii10089" unicode="&#x447;" horiz-adv-x="529" 
d="M81 108q-28 0 -52 19q-28 22 -27 56v217h109v-209h258v209h109v-400h-109v108h-288z" />
    <glyph glyph-name="afii10090" unicode="&#x448;" horiz-adv-x="698" 
d="M639 399v-399h-639v341l-46 6q-23 9 -23 38v18l179 1v-319h151v275l108 20v-294h161v313h109z" />
    <glyph glyph-name="afii10091" unicode="&#x449;" horiz-adv-x="698" 
d="M572 0h-572v341l-46 6q-23 9 -23 38v18l179 1v-319h151v275l108 20v-294h161v313h109v-311h32v-136h-99v48z" />
    <glyph glyph-name="afii10092" unicode="&#x44a;" horiz-adv-x="601" 
d="M457 73v73h-258v-73h258zM199 399v-170h366v-154q1 -34 -26 -56q-24 -19 -52 -19h-397v337h-12l-46 6q-23 9 -23 38v18h190z" />
    <glyph glyph-name="afii10093" unicode="&#x44b;" horiz-adv-x="641" 
d="M367 73v73h-258v-73h258zM475 229v-154q1 -34 -26 -56q-24 -19 -52 -19h-397v399h109v-170h366zM609 399l-1 -399h-108v399h109z" />
    <glyph glyph-name="afii10094" unicode="&#x44c;" horiz-adv-x="511" 
d="M367 73v73h-258v-73h258zM475 229v-154q1 -34 -26 -56q-24 -19 -52 -19h-397v399h109v-170h366z" />
    <glyph glyph-name="afii10095" unicode="&#x44d;" horiz-adv-x="464" 
d="M328 234v92h-327v123l99 -10v-40h337v-324q0 -35 -28 -56q-24 -19 -51 -19h-335l-22 73h327v78h-39q-27 0 -51 18q-28 22 -28 57v8h118z" />
    <glyph glyph-name="afii10096" unicode="&#x44e;" horiz-adv-x="758" 
d="M587 72v258h-238v-258h238zM241 250v153h178v36l99 10l-1 -46h179l1 -329q0 -35 -28 -56q-24 -19 -51 -19h-299q-27 0 -51 19q-28 21 -28 56v86q-25 2 -53 6v-162l-109 -10v347l-46 6q-23 9 -23 38v18h178v-147q26 -3 54 -6z" />
    <glyph glyph-name="afii10097" unicode="&#x44f;" horiz-adv-x="532" 
d="M6 76q47 -5 74 -5q132 0 132 99h-131q-28 0 -52 19q-28 22 -27 56l1 154h475v-399h-109v170h-47q3 -172 -217 -172q-48 0 -105 9zM369 253v73h-258v-73h258z" />
    <glyph glyph-name="afii10071" unicode="&#x451;" horiz-adv-x="495" 
d="M445 246q0 -35 -28 -57q-24 -18 -51 -18h-256v-98h327l-22 -73h-335q-27 0 -51 19q-28 21 -28 56v324h337v40l99 10v-123h-327v-72h335v-8zM78 483h99v-63h-99v63zM230 484h99v-63h-99v63z" />
    <glyph glyph-name="ellipsis" unicode="&#x2026;" horiz-adv-x="2048" 
d="M-3 64h99v-63h-99v63zM330 64h99v-63h-99v63zM663 64h99v-63h-99v63z" />
    <glyph glyph-name="trademark" unicode="&#x2122;" horiz-adv-x="594" 
d="M216 375v-21h-87v-131h-49v131h-77l-2 29h170v16l45 4v-4h58q19 -8 38 -15q27 -9 54 -9q44 0 97 22h49v-160h-49v125q-33 -17 -72 -20l-1 -109l-48 -13v122q-37 3 -68 18v-121l-49 -4v139q-5 0 -9 1z" />
    </font>
</defs>
</svg>
